<svg xmlns="http://www.w3.org/2000/svg" width="432" height="153" fill="none"><path fill="#000" d="M-21.3496 92.7144l19.86006-6.0789 16.16314 8.7162-19.86011 6.0793-16.16309-8.7166zM18.3713 80.5559l19.8601-6.0789 16.1631 8.7162-19.8601 6.0789-16.1631-8.7162z"/><path fill="#FF6363" d="M-1.4895 86.6355l19.8601-6.079 16.1631 8.7162-19.8601 6.079-16.1631-8.7162zM38.2322 74.4778l19.8601-6.0789 16.1631 8.7162-19.8601 6.0789-16.1631-8.7162z"/><path fill="#000" d="M58.0291 68.409l19.86-6.0789 16.1631 8.7162-19.86 6.0789-16.1631-8.7162zM97.7505 56.2514l19.8605-6.0789 16.163 8.7162-19.86 6.0789-16.1635-8.7162zM137.471 44.0929l19.861-6.0789 16.163 8.7162-19.86 6.0789-16.164-8.7162z"/><path fill="#FF6363" d="M77.8892 62.3301l19.86-6.0789 16.1628 8.7162-19.8597 6.0789-16.1631-8.7162zM117.611 50.1725l19.86-6.079 16.163 8.7162-19.86 6.079-16.163-8.7162zM157.332 38.0148l19.86-6.0789 16.163 8.7162-19.86 6.0789-16.163-8.7162z"/><path fill="#000" d="M177.13 31.945l19.86-6.0789 16.163 8.7162-19.86 6.0789-16.163-8.7162zM216.851 19.7874l19.86-6.0789 16.163 8.7161-19.86 6.079-16.163-8.7162zM256.572 7.62894l19.86-6.07892 16.163 8.71618-19.86 6.0789-16.163-8.71616z"/><path fill="#FF6363" d="M196.99 25.8661l19.86-6.0789 16.163 8.7162-19.86 6.0789-16.163-8.7162zM236.711 13.7085l19.86-6.07897 16.164 8.71617-19.86 6.0789-16.164-8.7161zM276.433 1.55081l19.86-6.07891 16.163 8.71619-19.86 6.07891-16.163-8.71619z"/><path fill="#000" d="M296.23-4.51799l19.86-6.07891 16.163 8.71619-19.86 6.07892-16.163-8.7162zM335.951-16.6756l19.86-6.0789 16.164 8.7162-19.86 6.07887-16.164-8.71617z"/><path fill="#FF6363" d="M316.09-10.5969l19.86-6.0789 16.163 8.71617-19.86 6.07892-16.163-8.71619z"/></svg>