<svg xmlns="http://www.w3.org/2000/svg" width="417" height="169" fill="none"><path fill="#000" d="M40.6519 173.3l19.86-6.079 16.1631 8.717-19.86 6.079-16.1631-8.717zM80.3726 161.142l19.8604-6.079 16.163 8.716-19.8603 6.079-16.1631-8.716z"/><path fill="#FF6363" d="M20.79 179.379l19.8601-6.079 16.1631 8.716-19.8601 6.079-16.1631-8.716zM60.5117 167.221l19.8601-6.078 16.1631 8.716-19.8601 6.079-16.1631-8.717zM100.233 155.064l19.86-6.079 16.164 8.716-19.861 6.079-16.163-8.716z"/><path fill="#000" d="M120.03 148.995l19.86-6.079 16.163 8.716-19.86 6.079-16.163-8.716zM159.752 136.837l19.86-6.079 16.163 8.717-19.86 6.079-16.163-8.717zM199.473 124.679l19.86-6.079 16.163 8.716-19.86 6.079-16.163-8.716z"/><path fill="#FF6363" d="M139.89 142.916l19.86-6.079 16.163 8.716-19.86 6.079-16.163-8.716zM179.612 130.758l19.86-6.078 16.163 8.716-19.86 6.079-16.163-8.717zM219.333 118.601l19.861-6.079 16.163 8.716-19.86 6.079-16.164-8.716z"/><path fill="#000" d="M239.131 112.531l19.86-6.079 16.163 8.716-19.86 6.079-16.163-8.716zM278.853 100.373l19.86-6.0786 16.163 8.7166-19.86 6.079-16.163-8.717zM318.573 88.2149l19.86-6.0789 16.163 8.7162-19.86 6.0789-16.163-8.7162z"/><path fill="#FF6363" d="M258.991 106.452l19.86-6.079 16.163 8.716-19.86 6.079-16.163-8.716zM298.712 94.2944l19.86-6.0789 16.164 8.7162-19.86 6.0793-16.164-8.7166zM338.434 82.1368l19.86-6.0789 16.163 8.7162-19.86 6.0789-16.163-8.7162z"/><path fill="#000" d="M358.231 76.068l19.86-6.0789 16.163 8.7162-19.86 6.0789-16.163-8.7162zM397.953 63.9103l19.86-6.0789 16.163 8.7162-19.86 6.0789-16.163-8.7162z"/><path fill="#FF6363" d="M378.091 69.9891l19.86-6.0789 16.163 8.7162-19.86 6.0789-16.163-8.7162z"/></svg>